# xmcd
#
# Track frame offsets: 
#        150
#        17403
#        32493
#        46003
#        64745
#        77345
#        91717
#        100123
#
# Disc length: 1613 seconds
#
# Revision: 0
# Processed by: cddbd v1.5.2PL0 Copyright (c) Steve Scherf et al.
# Submitted via: ExactAudioCopy v0.95b4
#
DISCID=45064b08
DTITLE=Larry Piatt - Yank Me - Crank Me
DYEAR=1994
DGENRE=Country
TTITLE0=Yank Me - Crank Me
TTITLE1=Borrowed Time
TTITLE2=Guided By The Neon Light
TTITLE3=Day By Day
TTITLE4=Love Can Make You Blind
TTITLE5=Barroom Waitress
TTITLE6=Liquid Gold
TTITLE7=Tribute To Grandpa
EXTD=
EXTT0=
EXTT1=
EXTT2=
EXTT3=
EXTT4=
EXTT5=
EXTT6=
EXTT7=
PLAYORDER=
